HIERARCHY
ROOT Hips
{
	OFFSET 0.00000 0.00000 0.00000
	CHANNELS 6 Xposition Yposition Zposition Zrotation Yrotation Xrotation 
	JOINT LHipJoint
	{
		OFFSET 0 0 0
		CHANNELS 3 Zrotation Yrotation Xrotation
		JOINT LeftUpLeg
		{
			OFFSET 1.28858 -1.83292 1.03970
			CHANNELS 3 Zrotation Yrotation Xrotation
			JOINT LeftLeg
			{
				OFFSET 2.47846 -6.80952 0.00000
				CHANNELS 3 Zrotation Yrotation Xrotation
				JOINT LeftFoot
				{
					OFFSET 2.75274 -7.56311 0.00000
					CHANNELS 3 Zrotation Yrotation Xrotation
					JOINT LeftToeBase
					{
						OFFSET 0.12848 -0.35301 1.68223
						CHANNELS 3 Zrotation Yrotation Xrotation
						End Site
						{
							OFFSET 0.00000 -0.00000 0.87311
						}
					}
				}
			}
		}
	}
	JOINT RHipJoint
	{
		OFFSET 0 0 0
		CHANNELS 3 Zrotation Yrotation Xrotation
		JOINT RightUpLeg
		{
			OFFSET -1.31183 -1.83292 1.03970
			CHANNELS 3 Zrotation Yrotation Xrotation
			JOINT RightLeg
			{
				OFFSET -2.44740 -6.72417 0.00000
				CHANNELS 3 Zrotation Yrotation Xrotation
				JOINT RightFoot
				{
					OFFSET -2.67343 -7.34519 0.00000
					CHANNELS 3 Zrotation Yrotation Xrotation
					JOINT RightToeBase
					{
						OFFSET -0.16914 -0.46471 1.77626
						CHANNELS 3 Zrotation Yrotation Xrotation
						End Site
						{
							OFFSET -0.00000 -0.00000 0.92777
						}
					}
				}
			}
		}
	}
	JOINT LowerBack
	{
		OFFSET 0 0 0
		CHANNELS 3 Zrotation Yrotation Xrotation
		JOINT Spine
		{
			OFFSET 0.01249 2.14252 0.03842
			CHANNELS 3 Zrotation Yrotation Xrotation
			JOINT Spine1
			{
				OFFSET -0.02957 2.14199 -0.03751
				CHANNELS 3 Zrotation Yrotation Xrotation
				JOINT Neck
				{
					OFFSET 0 0 0
					CHANNELS 3 Zrotation Yrotation Xrotation
					JOINT Neck1
					{
						OFFSET -0.01678 1.65709 -0.05476
						CHANNELS 3 Zrotation Yrotation Xrotation
						JOINT Head
						{
							OFFSET 0.07912 1.58331 -0.11843
							CHANNELS 3 Zrotation Yrotation Xrotation
							End Site
							{
								OFFSET 0.03298 1.73940 -0.04271
							}
						}
					}
				}
				JOINT LeftShoulder
				{
					OFFSET 0 0 0
					CHANNELS 3 Zrotation Yrotation Xrotation
					JOINT LeftArm
					{
						OFFSET 3.39556 1.16496 0.08673
						CHANNELS 3 Zrotation Yrotation Xrotation
						JOINT LeftForeArm
						{
							OFFSET 5.23910 -0.00000 -0.00000
							CHANNELS 3 Zrotation Yrotation Xrotation
							JOINT LeftHand
							{
								OFFSET 3.31467 -0.00000 0.00000
								CHANNELS 3 Zrotation Yrotation Xrotation
								JOINT LeftFingerBase
								{
									OFFSET 0 0 0
									CHANNELS 3 Zrotation Yrotation Xrotation
									JOINT LeftHandIndex1
									{
										OFFSET 0.96590 -0.00000 0.00000
										CHANNELS 3 Zrotation Yrotation Xrotation
										End Site
										{
											OFFSET 0.77873 -0.00000 0.00000
										}
									}
								}
								JOINT LThumb
								{
									OFFSET 0 0 0
									CHANNELS 3 Zrotation Yrotation Xrotation
									End Site
									{
										OFFSET 0.79062 -0.00000 0.79062
									}
								}
							}
						}
					}
				}
				JOINT RightShoulder
				{
					OFFSET 0 0 0
					CHANNELS 3 Zrotation Yrotation Xrotation
					JOINT RightArm
					{
						OFFSET -3.27193 1.31331 0.33940
						CHANNELS 3 Zrotation Yrotation Xrotation
						JOINT RightForeArm
						{
							OFFSET -5.30252 -0.00000 0.00000
							CHANNELS 3 Zrotation Yrotation Xrotation
							JOINT RightHand
							{
								OFFSET -3.67875 -0.00000 0.00000
								CHANNELS 3 Zrotation Yrotation Xrotation
								JOINT RightFingerBase
								{
									OFFSET 0 0 0
									CHANNELS 3 Zrotation Yrotation Xrotation
									JOINT RightHandIndex1
									{
										OFFSET -0.59481 -0.00000 0.00000
										CHANNELS 3 Zrotation Yrotation Xrotation
										End Site
										{
											OFFSET -0.47955 -0.00000 0.00000
										}
									}
								}
								JOINT RThumb
								{
									OFFSET 0 0 0
									CHANNELS 3 Zrotation Yrotation Xrotation
									End Site
									{
										OFFSET -0.48687 -0.00000 0.48687
									}
								}
							}
						}
					}
				}
			}
		}
	}
}
MOTION
Frames: 10
Frame Time: .0083333
6.1549 18.2025 3.9696 0 0 0 0 0 0 -21 0 0 0 0 0 0 0 0 0 0 0 0 0 0 21 0 0 0 0 0 0 0 0 0 0 0 0 0 0 0 0 0 0 0 0 0 0 -16 0 0 21 0 0 11 0 0 0 -8 0 0 0 0 0 0 0 0 0 0 0 0 0 0 0 0 0 0 0 0 8 0 0 0 0 0 0 0 0 0 0 0 0 0 0 0 0 0
6.1549 18.2025 3.9696 0.7207 0.3258 3.2807 0.0000 0.0000 0.0000 -13.0504 0.4488 3.1437 0.0005 0.1454 0.3996 0.2487 -9.2760 -10.2809 0.1745 -2.6908 -7.4190 0.0000 0.0000 0.0000 18.7012 9.0084 10.4823 -0.0302 1.1214 -3.0830 -0.1397 -16.3393 -24.4577 -0.0305 -1.1283 3.1018 0.4106 1.1347 -7.0198 -1.3686 1.5117 -2.0685 -1.5108 0.7539 1.8481 -4.2640 -2.3583 3.2582 6.9667 -3.3862 2.8705 2.9799 -1.7244 0.5497 0.0000 -0.0000 0.0000 -87.7599 -2.7689 34.5180 11.9551 -19.7373 -2.0871 -0.0000 0.0000 -8.1113 1.2122 -14.4800 -0.3031 -7.1250 0.0000 -0.0000 -17.7293 15.9151 12.8247 0.0000 -0.0000 0.0000 91.3311 -5.5076 20.4675 -16.1554 25.7309 -3.7132 0.0000 0.0000 1.7156 -10.7140 -38.5405 6.7235 7.1250 -0.0000 -0.0000 32.0989 -66.3276 -17.2629
6.1669 18.2002 3.9702 0.4958 -0.0059 3.2845 0.0000 0.0000 0.0000 -12.7562 0.6544 3.1198 0.0004 0.1369 0.3760 0.2250 -9.6873 -10.1436 0.1386 -2.3996 -6.6113 0.0000 0.0000 0.0000 18.9181 9.1916 10.4229 -0.0278 1.0773 -2.9615 -0.1389 -16.2067 -24.2765 -0.0305 -1.1277 3.1004 0.8149 1.2867 -7.1760 -1.3886 1.6864 -2.0049 -1.7393 0.8429 2.0177 -3.9816 -2.3791 3.3599 6.8738 -3.3926 2.5855 2.8985 -1.7294 0.4348 0.0000 -0.0000 0.0000 -87.4625 -2.8787 35.3771 11.8766 -19.6193 -2.0607 -0.0000 0.0000 -8.7819 -0.0515 -14.7587 0.0131 -7.1250 0.0000 -0.0000 -18.5294 15.6870 13.5674 0.0000 -0.0000 0.0000 91.3135 -5.2484 21.5136 -15.6377 25.0270 -3.4913 0.0000 0.0000 2.3459 -10.4464 -38.7037 6.5764 7.1250 -0.0000 -0.0000 32.6120 -66.3825 -17.6045
6.1802 18.2001 3.9778 0.6363 -0.2969 3.2905 0.0000 0.0000 0.0000 -12.9729 0.8408 3.1403 0.0004 0.1258 0.3455 0.1937 -9.7725 -9.7664 0.0932 -1.9684 -5.4184 0.0000 0.0000 0.0000 18.6095 9.0440 10.2479 -0.0256 1.0329 -2.8394 -0.1400 -15.9148 -23.9027 -0.0252 -1.0248 2.8172 0.8184 1.3368 -7.3695 -1.4522 1.7542 -1.9604 -1.7959 0.8778 2.1757 -3.9897 -2.3260 3.3099 6.9734 -3.3232 2.6051 2.9329 -1.6937 0.4476 0.0000 0.0000 0.0000 -87.2935 -2.7163 35.8375 11.9645 -19.7514 -2.0903 -0.0000 0.0000 -9.0431 -1.3345 -14.6472 0.3375 -7.1250 0.0000 -0.0000 -19.3706 15.8232 14.2008 0.0000 0.0000 0.0000 91.2107 -4.9618 22.6557 -15.0534 24.2205 -3.2478 0.0000 0.0000 3.1099 -10.1523 -38.6815 6.3858 7.1250 -0.0000 -0.0000 32.8921 -66.2786 -17.6927
6.1927 18.1988 3.9883 0.8971 -0.5623 3.2869 0.0000 0.0000 0.0000 -13.3678 0.8711 3.2745 0.0002 0.0868 0.2386 0.1257 -9.4191 -8.6340 0.0129 0.7336 2.0161 0.0000 0.0000 0.0000 18.1696 8.9235 10.1120 -0.0238 0.9952 -2.7357 -0.1503 -15.6415 -23.6398 -0.0188 -0.8841 2.4301 0.7005 1.3873 -7.5762 -1.5641 1.8334 -1.9165 -1.8324 0.9179 2.3389 -3.9649 -2.3064 3.3227 7.0584 -3.2955 2.5581 2.9575 -1.6803 0.4299 -0.0000 0.0000 0.0000 -87.1200 -2.4719 36.0306 12.0398 -19.8644 -2.1158 -0.0000 0.0000 -8.9866 -2.6536 -14.5529 0.6672 -7.1250 0.0000 -0.0000 -20.2293 15.9360 14.8657 -0.0000 0.0000 0.0000 91.1757 -4.6543 23.5339 -14.4597 23.3881 -3.0082 0.0000 0.0000 4.1554 -9.8052 -38.5519 6.1475 7.1250 -0.0000 -0.0000 33.0768 -66.0726 -17.6477
6.2036 18.1964 3.9970 0.9051 -0.7699 3.2946 0.0000 0.0000 0.0000 -13.4484 0.7032 3.4920 0.0000 0.0228 0.0627 0.0272 -8.4294 -6.4315 1.4159 7.5256 21.2822 0.0000 0.0000 0.0000 18.1370 9.1014 10.1033 -0.0221 0.9588 -2.6355 -0.1757 -15.4916 -23.6784 -0.0358 -1.2215 3.3585 0.8235 1.4590 -7.7020 -1.6109 1.9201 -1.9372 -1.9388 0.9619 2.3963 -3.9464 -2.3232 3.4568 7.1433 -3.3163 2.4491 2.9858 -1.6942 0.3747 -0.0000 0.0000 0.0000 -86.9733 -2.1215 36.0486 12.0494 -19.8787 -2.1191 -0.0000 0.0000 -8.8642 -3.9001 -14.7251 0.9928 -7.1250 0.0000 -0.0000 -21.0065 15.7904 15.5964 -0.0000 0.0000 0.0000 91.2046 -4.5452 24.2349 -13.9738 22.6972 -2.8180 0.0000 0.0000 5.1655 -9.4657 -38.4467 5.9186 7.1250 -0.0000 -0.0000 33.2876 -65.8893 -17.6332
6.2134 18.1936 4.0080 0.8173 -0.8788 3.3425 0.0000 0.0000 0.0000 -13.4276 0.4497 3.7146 0.0001 -0.0574 -0.1576 0.0633 -7.1080 -6.3481 1.5206 7.7867 22.0682 0.0000 0.0000 0.0000 18.2589 9.3328 10.1482 -0.0211 0.9387 -2.5803 -0.2039 -15.4024 -23.8211 -0.0998 -2.0374 5.6089 1.0004 1.4757 -7.8197 -1.5885 1.9266 -2.0212 -2.0129 0.9651 2.3800 -4.0140 -2.3038 3.4433 7.2385 -3.3002 2.5759 3.0299 -1.6852 0.4193 0.0000 -0.0000 0.0000 -86.9873 -1.6412 35.6656 12.0485 -19.8773 -2.1188 -0.0000 0.0000 -8.5548 -5.0921 -14.6913 1.2946 -7.1250 0.0000 -0.0000 -21.7652 15.8307 16.2332 0.0000 -0.0000 0.0000 91.1877 -4.6882 25.0156 -13.5983 22.1575 -2.6747 0.0000 0.0000 5.8885 -9.1741 -38.4258 5.7317 7.1250 -0.0000 -0.0000 33.5642 -65.7885 -17.7177
6.2227 18.1878 4.0231 0.7005 -0.9046 3.3877 0.0000 0.0000 0.0000 -13.4212 0.0453 4.0470 0.0008 -0.1796 -0.4935 0.0951 -5.9628 -6.4446 1.5588 7.8792 22.3479 0.0000 0.0000 0.0000 18.4165 9.4575 10.2200 -0.0204 0.9230 -2.5370 -0.2124 -15.4562 -23.9660 -0.1289 -2.3145 6.3757 1.1716 1.4802 -8.0056 -1.5315 1.9158 -2.0800 -2.0478 0.9602 2.4255 -3.8789 -2.3272 3.2476 7.0473 -3.3351 2.8747 2.9347 -1.6947 0.5439 0.0000 -0.0000 0.0000 -87.1030 -1.1724 35.2695 11.9263 -19.6940 -2.0774 -0.0000 0.0000 -7.7081 -5.6135 -14.7630 1.4347 -7.1250 0.0000 -0.0000 -22.0847 15.7656 16.5473 0.0000 -0.0000 0.0000 91.1293 -4.9027 25.7532 -13.2779 21.6930 -2.5551 0.0000 0.0000 6.2382 -8.8246 -38.4168 5.5101 7.1250 -0.0000 -0.0000 33.9165 -65.6811 -17.8402
6.2341 18.1831 4.0381 0.5669 -0.9093 3.3652 0.0000 0.0000 0.0000 -13.4215 -0.3750 4.4724 0.0023 -0.3075 -0.8450 0.1199 -5.2149 -6.6825 1.6799 8.1649 23.2159 0.0000 0.0000 0.0000 18.5502 9.3451 10.2447 -0.0191 0.8926 -2.4534 -0.1874 -15.5714 -23.8875 -0.0880 -1.9135 5.2665 1.3470 1.4883 -8.1072 -1.4409 1.9086 -2.1154 -2.0516 0.9570 2.4475 -3.7585 -2.4168 3.0306 6.7291 -3.4601 3.2699 2.7992 -1.7488 0.7053 0.0000 -0.0000 0.0000 -87.2575 -0.7513 35.1276 11.6258 -19.2410 -1.9772 -0.0000 0.0000 -6.6278 -5.3673 -15.2739 1.4178 -7.1250 0.0000 -0.0000 -21.8687 15.2887 16.6030 0.0000 -0.0000 0.0000 91.0494 -5.1957 26.3280 -13.1186 21.4607 -2.4965 0.0000 0.0000 6.4382 -7.5922 -38.2634 4.7187 7.1250 -0.0000 -0.0000 34.9821 -65.2079 -18.0860
6.2474 18.1839 4.0515 0.5403 -0.8795 3.3154 0.0000 0.0000 0.0000 -13.5386 -0.6064 4.8678 0.0045 -0.4330 -1.1899 0.1369 -4.6991 -6.8874 1.7378 8.2972 23.6205 0.0000 0.0000 0.0000 18.4879 9.0298 10.1988 -0.0183 0.8732 -2.4001 -0.1546 -15.5835 -23.6037 -0.0468 -1.3961 3.8393 1.4361 1.4650 -8.0863 -1.3870 1.8687 -2.1703 -2.0514 0.9365 2.3782 -3.7874 -2.4779 2.8549 6.5837 -3.5518 3.6170 2.7514 -1.7893 0.8486 0.0000 -0.0000 0.0000 -87.3665 -0.3424 35.0050 11.3110 -18.7634 -1.8747 -0.0000 0.0000 -6.0861 -5.4163 -15.4244 1.4446 -7.1250 0.0000 -0.0000 -21.8816 15.1486 16.6865 0.0000 -0.0000 0.0000 91.0029 -5.5851 26.3854 -12.9589 21.2270 -2.4384 0.0000 0.0000 6.8219 -7.9492 -38.0261 4.9164 7.1250 -0.0000 -0.0000 34.2937 -65.1186 -17.6210
